<?xml version="1.0" encoding="utf-8"?>
<svg viewBox="0 0 730.37175 609.06" xmlns="http://www.w3.org/2000/svg">
  <circle cx="529.35659" cy="247.0762" r="28" fill="#2f2e41" />
  <polygon points="522.715 596.582 510.456 596.581 504.623 549.293 522.718 549.294 522.715 596.582" fill="#a0616a" />
  <path d="M760.65608,753.93567l-39.53052-.00146v-.5A15.38605,15.38605,0,0,1,736.512,738.048h.001l24.1438.001Z" transform="matrix(1, 0, 0, 1, -234.814117, -145.470001)" fill="#2f2e41" />
  <polygon points="605.288 586.134 593.602 589.84 573.747 546.527 590.995 541.058 605.288 586.134" fill="#a0616a" />
  <path d="M846.67523,741.98707l-37.68146,11.9486-.15115-.4766A15.38605,15.38605,0,0,1,818.858,734.1414l.00094-.00029,23.01448-7.29769Z" transform="matrix(1, 0, 0, 1, -234.814117, -145.470001)" fill="#2f2e41" />
  <path d="M756.5064,729.5462H746.0191a4.49525,4.49525,0,0,1-4.42969-3.708L716.58917,555.0257l74.45556,2.5332,47.88184,156.85937a4.49873,4.49873,0,0,1-3.74829,5.65918l-13.51538,5.12012a4.47353,4.47353,0,0,1-4.64258-2.65137l-58.55542-132.665a1.5,1.5,0,0,0-2.87109.665l5.40893,134.31836a4.50059,4.50059,0,0,1-4.49634,4.68164Z" transform="matrix(1, 0, 0, 1, -234.814117, -145.470001)" fill="#2f2e41" />
  <circle cx="529.85265" cy="254.34392" r="24.56103" fill="#a0616a" />
  <path d="M761.37774,574.60968c-12.70483.001-27.97754-3.209-44.366-13.45605a4.51635,4.51635,0,0,1-1.92211-5.15625L731.17047,503.972,730.97,461.638a32.22248,32.22248,0,0,1,24.94751-28.47949c.2915-.06738.58545-.13184.88232-.19629a31.4257,31.4257,0,0,1,28.27246,7.76953,32.43994,32.43994,0,0,1,10.15283,28.10059l-4.05151,62.18652,5.49683,31.14941a4.46714,4.46714,0,0,1-2.3523,4.77344A73.36316,73.36316,0,0,1,761.37774,574.60968Z" transform="matrix(1, 0, 0, 1, -234.814117, -145.470001)" fill="#f9a826" />
  <path d="M743.288,524.84232a10.5264,10.5264,0,0,0-1.55971-.5609l-15.73753-47.03,7.96861-9.03636-12.06564-13.80848-15.66149,14.62616a8,8,0,0,0-1.68093,9.45275l25.4316,50.36494a10.4971,10.4971,0,1,0,13.30509-4.00812Z" transform="matrix(1, 0, 0, 1, -234.814117, -145.470001)" fill="#a0616a" />
  <path d="M725.12632,475.61046l-14.87111-17.18694a4.5,4.5,0,0,1,.9888-6.742l19.1226-12.15494a12.49741,12.49741,0,0,1,16.29913,18.94927l-14.7253,17.12508a4.5,4.5,0,0,1-6.81412.00952Z" transform="matrix(1, 0, 0, 1, -234.814117, -145.470001)" fill="#f9a826" />
  <path d="M735.15187,376.33915a16.203,16.203,0,0,0-5.00438,4.32068c-1.18875,1.82462-1.43077,4.36376.05421,5.98972,1.75535,1.922,4.92889,1.78913,7.62106,1.49242l27.35975-3.01538-10.77084,7.6,25.89465-2.58343c4.52467-.45141,9.73948-1.308,11.94456-5.01126,2.58718-4.345-.70561-9.73921-4.64109-13.096A40.34413,40.34413,0,0,0,759.1661,362.822a39.52545,39.52545,0,0,0-26.73088,12.91076Z" transform="matrix(1, 0, 0, 1, -234.814117, -145.470001)" fill="#2f2e41" />
  <path id="a7917ce3-4960-44d0-ba8e-200483b3d545-135" data-name="Path 22" d="M762.52494,507.62069h-.30229v-8.2813a4.7932,4.7932,0,0,0-4.79319-4.79319H739.88381a4.79319,4.79319,0,0,0-4.79318,4.79319V544.772a4.79319,4.79319,0,0,0,4.79318,4.79319h17.54565a4.79319,4.79319,0,0,0,4.79311-4.79319V513.51548h.30229Z" transform="matrix(1, 0, 0, 1, -234.814117, -145.470001)" fill="#3f3d56" />
  <circle cx="513.35659" cy="364.0762" r="4" fill="#fff" />
  <path d="M752.04146,520.68315a10.526,10.526,0,0,1,1.6294.30392l37.34154-32.63584-2.31159-11.82418,17.38881-5.82094,6.12646,20.53469a8,8,0,0,1-3.325,9.0069L761.49874,530.864a10.4971,10.4971,0,1,1-9.45728-10.18087Z" transform="matrix(1, 0, 0, 1, -234.814117, -145.470001)" fill="#a0616a" />
  <path d="M788.85921,486.99167a4.49518,4.49518,0,0,1-2.14746-3.07065l-4.05606-22.21826a12.49741,12.49741,0,0,1,23.63948-8.1186l10.36188,20.15063a4.5,4.5,0,0,1-2.55282,6.31786l-21.51675,7.31917A4.495,4.495,0,0,1,788.85921,486.99167Z" transform="matrix(1, 0, 0, 1, -234.814117, -145.470001)" fill="#f9a826" />
  <path d="M964.18588,754.53h-381a1,1,0,0,1,0-2h381a1,1,0,0,1,0,2Z" transform="matrix(1, 0, 0, 1, -234.814117, -145.470001)" fill="#3f3d56" />
  <g transform="matrix(1, 0, 0, 1, -69.658379, -146.692337)">
    <circle fill="#FFFFFF" cx="244.742" cy="387.392" r="49.1" />
    <path fill="#ED2224" d="M 215.642 414.092 C 222.842 421.892 233.242 426.892 244.742 426.892 C 250.642 426.892 256.242 425.592 261.242 423.292 L 233.842 395.892 L 215.642 414.092 Z" />
    <path fill="#ED2224" d="M 233.642 379.392 L 212.942 400.092 L 210.142 397.292 L 231.942 375.492 L 257.442 349.992 C 253.442 348.592 249.142 347.892 244.642 347.892 C 222.942 347.892 205.242 365.492 205.242 387.392 C 205.242 396.292 208.142 404.492 213.142 411.092 L 233.842 390.392 L 235.242 391.792 L 264.842 421.292 C 265.442 420.992 266.042 420.592 266.542 420.192 L 233.842 387.492 L 213.942 407.392 L 211.142 404.592 L 233.842 381.892 L 235.242 383.292 L 269.742 417.792 C 270.242 417.392 270.742 416.892 271.242 416.492 L 234.042 379.392 L 233.642 379.392 Z" />
    <path fill="#ED1C24" d="M 274.042 413.792 C 280.342 406.792 284.242 397.492 284.242 387.292 C 284.242 371.492 274.942 357.792 261.442 351.492 L 236.642 376.392 L 274.042 413.792 Z M 246.142 383.592 L 243.342 380.792 L 262.942 361.292 L 265.742 364.092 L 246.142 383.592 Z M 264.742 356.692 L 242.142 379.292 L 239.342 376.492 L 261.942 353.892 L 264.742 356.692 Z" />
    <g transform="matrix(1, 0, 0, 1, 195.642044, 338.291626)">
      <path fill="#FFFFFF" d="M38.2,52.1L17.5,72.8c0.8,1.1,1.6,2.1,2.5,3l18.2-18.2L65.5,85c1.3-0.6,2.5-1.2,3.7-1.9L39.6,53.4 L38.2,52.1z" />
      <path fill="#FFFFFF" d="M38.2,43.7L15.5,66.4l2.8,2.8l19.9-19.9L70.9,82c1.1-0.7,2.2-1.5,3.2-2.4L39.6,45.1L38.2,43.7z" />
      <path fill="#FFFFFF" d="M41,38.1l24.8-24.8c-1.3-0.6-2.6-1.1-4-1.6L36.3,37.1h0L14.5,59l2.8,2.8L38,41.1l0.4,0l37.2,37.2 c1-0.9,1.9-1.8,2.8-2.8L41,38.1z" />
      <rect x="40.4" y="26.3" transform="matrix(-0.7071 0.7071 -0.7071 -0.7071 116.2221 8.4015)" fill="#FFFFFF" width="32" height="3.9" />
      <rect x="56.9" y="20.3" transform="matrix(-0.7071 -0.7071 0.7071 -0.7071 76.3804 99.8893)" fill="#FFFFFF" width="3.9" height="27.7" />
    </g>
    <g transform="matrix(1, 0, 0, 1, 195.642044, 338.291626)">
      <g>
        <path fill="#ED2224" d="M49.1,98.1C22,98.1,0,76.1,0,49.1C0,22,22,0,49.1,0s49.1,22,49.1,49.1C98.1,76.1,76.1,98.1,49.1,98.1z M49.1,4.9C24.7,4.9,4.9,24.7,4.9,49.1s19.8,44.1,44.1,44.1s44.1-19.8,44.1-44.1S73.4,4.9,49.1,4.9z" />
      </g>
    </g>
    <g transform="matrix(1, 0, 0, 1, 195.642044, 338.291626)">
      <path fill="#010101" d="M124.8,61.7V36.8h-9V31h24.5v5.8h-8.9v24.9H124.8z" />
      <path fill="#010101" d="M168.8,61.7l-6-10.9H158v10.9h-6.5V31h14.4c6.4,0,10.3,4.2,10.3,9.9c0,5.4-3.4,8.3-6.7,9.1l6.9,11.7H168.8z M169.5,40.9c0-2.6-2-4.1-4.6-4.1H158V45h6.9C167.5,45,169.5,43.5,169.5,40.9z" />
      <path fill="#010101" d="M210.7,61.7l-1.9-5.2h-13.2l-1.9,5.2h-7.5L198.1,31h8.2l11.8,30.7H210.7z M202.2,37.5l-4.8,13.2h9.6 L202.2,37.5z" />
      <path fill="#010101" d="M247,61.7l-9.3-12.3l-2.4,2.9v9.4h-6.5V31h6.5v13.7L246.1,31h8.1L242,45.4l13,16.3H247z" />
      <path fill="#010101" d="M273.3,61.7V36.8h-9V31h24.5v5.8h-8.9v24.9H273.3z" />
    </g>
  </g>
  <g transform="matrix(1, 0, 0, 1, -15.570704, -253.228668)">
    <circle fill="#FFFFFF" cx="244.742" cy="387.392" r="49.1" />
    <path d="M 215.642 414.092 C 222.842 421.892 233.242 426.892 244.742 426.892 C 250.642 426.892 256.242 425.592 261.242 423.292 L 233.842 395.892 L 215.642 414.092 Z" style="fill: rgb(242, 242, 242);" />
    <path d="M 233.642 379.392 L 212.942 400.092 L 210.142 397.292 L 231.942 375.492 L 257.442 349.992 C 253.442 348.592 249.142 347.892 244.642 347.892 C 222.942 347.892 205.242 365.492 205.242 387.392 C 205.242 396.292 208.142 404.492 213.142 411.092 L 233.842 390.392 L 235.242 391.792 L 264.842 421.292 C 265.442 420.992 266.042 420.592 266.542 420.192 L 233.842 387.492 L 213.942 407.392 L 211.142 404.592 L 233.842 381.892 L 235.242 383.292 L 269.742 417.792 C 270.242 417.392 270.742 416.892 271.242 416.492 L 234.042 379.392 L 233.642 379.392 Z" style="fill: rgb(242, 242, 242);" />
    <path d="M 274.042 413.792 C 280.342 406.792 284.242 397.492 284.242 387.292 C 284.242 371.492 274.942 357.792 261.442 351.492 L 236.642 376.392 L 274.042 413.792 Z M 246.142 383.592 L 243.342 380.792 L 262.942 361.292 L 265.742 364.092 L 246.142 383.592 Z M 264.742 356.692 L 242.142 379.292 L 239.342 376.492 L 261.942 353.892 L 264.742 356.692 Z" style="fill: rgb(242, 242, 242);" />
    <g transform="matrix(1, 0, 0, 1, 195.642044, 338.291626)">
      <path fill="#FFFFFF" d="M38.2,52.1L17.5,72.8c0.8,1.1,1.6,2.1,2.5,3l18.2-18.2L65.5,85c1.3-0.6,2.5-1.2,3.7-1.9L39.6,53.4 L38.2,52.1z" />
      <path fill="#FFFFFF" d="M38.2,43.7L15.5,66.4l2.8,2.8l19.9-19.9L70.9,82c1.1-0.7,2.2-1.5,3.2-2.4L39.6,45.1L38.2,43.7z" />
      <path fill="#FFFFFF" d="M41,38.1l24.8-24.8c-1.3-0.6-2.6-1.1-4-1.6L36.3,37.1h0L14.5,59l2.8,2.8L38,41.1l0.4,0l37.2,37.2 c1-0.9,1.9-1.8,2.8-2.8L41,38.1z" />
      <rect x="40.4" y="26.3" transform="matrix(-0.7071 0.7071 -0.7071 -0.7071 116.2221 8.4015)" fill="#FFFFFF" width="32" height="3.9" />
      <rect x="56.9" y="20.3" transform="matrix(-0.7071 -0.7071 0.7071 -0.7071 76.3804 99.8893)" fill="#FFFFFF" width="3.9" height="27.7" />
    </g>
    <g transform="matrix(1, 0, 0, 1, 195.642044, 338.291626)">
      <g>
        <path d="M49.1,98.1C22,98.1,0,76.1,0,49.1C0,22,22,0,49.1,0s49.1,22,49.1,49.1C98.1,76.1,76.1,98.1,49.1,98.1z M49.1,4.9C24.7,4.9,4.9,24.7,4.9,49.1s19.8,44.1,44.1,44.1s44.1-19.8,44.1-44.1S73.4,4.9,49.1,4.9z" style="fill: rgb(242, 242, 242);" />
      </g>
    </g>
    <g transform="matrix(1, 0, 0, 1, 195.642044, 338.291626)">
      <path d="M124.8,61.7V36.8h-9V31h24.5v5.8h-8.9v24.9H124.8z" style="fill: rgb(242, 242, 242);" />
      <path d="M168.8,61.7l-6-10.9H158v10.9h-6.5V31h14.4c6.4,0,10.3,4.2,10.3,9.9c0,5.4-3.4,8.3-6.7,9.1l6.9,11.7H168.8z M169.5,40.9c0-2.6-2-4.1-4.6-4.1H158V45h6.9C167.5,45,169.5,43.5,169.5,40.9z" style="fill: rgb(242, 242, 242);" />
      <path d="M210.7,61.7l-1.9-5.2h-13.2l-1.9,5.2h-7.5L198.1,31h8.2l11.8,30.7H210.7z M202.2,37.5l-4.8,13.2h9.6 L202.2,37.5z" style="fill: rgb(242, 242, 242);" />
      <path d="M247,61.7l-9.3-12.3l-2.4,2.9v9.4h-6.5V31h6.5v13.7L246.1,31h8.1L242,45.4l13,16.3H247z" style="fill: rgb(242, 242, 242);" />
      <path d="M273.3,61.7V36.8h-9V31h24.5v5.8h-8.9v24.9H273.3z" style="fill: rgb(242, 242, 242);" />
    </g>
  </g>
</svg>